<svg xmlns="http://www.w3.org/2000/svg" xmlns:xlink="http://www.w3.org/1999/xlink" style="enable-background:new 0 0 48 48" id="Layer_1" x="0" y="0" version="1.1" viewBox="0 0 48 48" xml:space="preserve"><style type="text/css">.st0{clip-path:url(#SVGID_2_);fill:#28a8ea}.st1{fill:#0078d4}.st1,.st2,.st3,.st4,.st5{clip-path:url(#SVGID_2_)}.st2{fill:#0364b8}.st3{fill:#14447d}.st4{fill:#0f335e}.st5{fill:#50d9ff}</style><g><defs><path id="SVGID_1_" d="M34.9,3.2H13.1c-0.7,0-1.4,0.4-1.8,1L0.5,23c-0.4,0.6-0.4,1.4,0,2.1l10.9,18.7c0.4,0.6,1.1,1,1.8,1h21.7 c0.7,0,1.4-0.4,1.8-1L47.5,25c0.4-0.6,0.4-1.4,0-2.1L36.7,4.3C36.3,3.6,35.6,3.2,34.9,3.2z"/></defs><clipPath id="SVGID_2_"><use style="overflow:visible" xlink:href="#SVGID_1_"/></clipPath><polygon points="11.3 3.1 15.6 11.1 35.4 3.1" class="st0"/><polygon points="11.3 3.1 15.6 11.1 .2 23.3 .2 3.1" class="st1"/><polygon points="-.8 24 15.6 11.1 16.5 37.1" class="st2"/><polygon points="-.8 24 16.5 37.1 11.5 44.8 .2 45.2" class="st3"/><polygon points="11.5 44.8 16.5 37.1 36.2 45.2" class="st4"/><polygon points="16.5 37.1 36.7 24 36.2 45.2" class="st2"/><polygon points="16.5 37.1 15.6 11.1 36.7 24" class="st0"/><polygon points="15.6 11.1 36.2 2.8 36.7 24" class="st5"/><polygon points="36.7 24 36.2 2.8 48.1 3.1 48.1 24" class="st0"/><polygon points="36.7 24 36.2 45.9 47.5 45.9 48.1 24" class="st1"/></g></svg>