<svg xmlns="http://www.w3.org/2000/svg" xmlns:xlink="http://www.w3.org/1999/xlink" id="Layer_1" x="0" y="0" version="1.1" viewBox="0 0 48 48" xml:space="preserve" style="enable-background:new 0 0 48 48"><style type="text/css">.st0{fill:url(#SVGID_1_)}.st1{fill:#0078d4}.st2{fill:#14447d}.st3{fill:url(#SVGID_2_)}.st4{fill:#fff}</style><g><linearGradient id="SVGID_1_" x1=".998" x2="16.31" y1="39.272" y2="39.272" gradientUnits="userSpaceOnUse"><stop offset="0" style="stop-color:#32bedd"/><stop offset=".175" style="stop-color:#32caea"/><stop offset=".41" style="stop-color:#32d2f2"/><stop offset=".775" style="stop-color:#32d4f5"/></linearGradient><path d="M4.93,35.96c3.79-4.22,7.59-4.31,7.59-4.31l3.79,3.81c0,0-0.12,3.79-4.35,7.56S1,46.9,1,46.9 S1.14,40.18,4.93,35.96z" class="st0"/><polygon points="16.51 17.4 13.93 17.26 1.5 22.44 3.47 24.42 14.27 25.21" class="st1"/><polygon points="32.12 31.52 32.24 34.1 27 46.5 25.03 44.53 24.29 33.72" class="st2"/><polygon points="16.05 37.06 19.69 28.62 10.75 31.74" class="st2"/><linearGradient id="SVGID_2_" x1="12.21" x2="47.177" y1="19.054" y2="19.054" gradientUnits="userSpaceOnUse"><stop offset="0" style="stop-color:#32bedd"/><stop offset=".175" style="stop-color:#32caea"/><stop offset=".41" style="stop-color:#32d2f2"/><stop offset=".775" style="stop-color:#32d4f5"/></linearGradient><path d="M22.39,10.77c-9.68,8.66-10.18,17.11-10.18,17.11l8.18,8.23c0,0,8.45-0.46,17.16-10.09S47.18,2,47.18,2 S32.07,2.11,22.39,10.77z" class="st3"/><path d="M32.99,19.49c-4.86,4.84-10.95,10.13-16.41,12.79l3.81,3.83c0,0,8.71,0.05,17.36-9.66 c6.38-7.16,8.88-19.1,9.42-24.45" class="st1"/><circle cx="30.82" cy="17.31" r="4.61" class="st4"/></g></svg>