<svg xmlns="http://www.w3.org/2000/svg" xmlns:xlink="http://www.w3.org/1999/xlink" id="Layer_1" x="0" y="0" version="1.1" viewBox="0 0 48 48" xml:space="preserve" style="enable-background:new 0 0 48 48"><style type="text/css">.st0{fill:url(#SVGID_1_)}.st1{fill:#0078d4}.st2{fill:#f2f2f2}.st3{fill:#e6e6e6}</style><g id="a7ef0482-71f2-4b7e-b916-b1c754245bf1"><g><linearGradient id="SVGID_1_" x1="-540.396" x2="-540.396" y1="242.973" y2="270.188" gradientTransform="matrix(1 0 0 -1 564 284)" gradientUnits="userSpaceOnUse"><stop offset="0" style="stop-color:#32bedd"/><stop offset=".175" style="stop-color:#32caea"/><stop offset=".41" style="stop-color:#32d2f2"/><stop offset=".775" style="stop-color:#32d4f5"/></linearGradient><path d="M0.58,13.81h46.05l0,0v25.68c0,0.85-0.69,1.54-1.54,1.54l0,0H2.12c-0.85,0-1.54-0.69-1.54-1.54V13.81 L0.58,13.81z" class="st0"/><path d="M2.12,4h42.96c0.85,0,1.54,0.69,1.54,1.54c0,0,0,0,0,0v8.27l0,0H0.58l0,0V5.54C0.58,4.69,1.27,4,2.12,4 C2.12,4,2.12,4,2.12,4z" class="st1"/><g><path d="M28.29,19.75l1-1c0.18-0.18,0.46-0.18,0.64,0l7.4,7.38c0.35,0.35,0.36,0.93,0,1.28l0,0l-1,1l0,0l-8.04-8.02 C28.12,20.21,28.12,19.93,28.29,19.75L28.29,19.75z" class="st2"/><path d="M29.44,34.71l-1-1c-0.18-0.18-0.18-0.46,0-0.64l7.9-7.92l0,0l1,1c0.35,0.35,0.36,0.93,0,1.28l0,0l-7.27,7.29 C29.9,34.9,29.61,34.9,29.44,34.71L29.44,34.71z" class="st3"/><path d="M18.51,19.75c0.18,0.18,0.18,0.46,0,0.64l-8.04,8.02l0,0l-1-1l0,0c-0.35-0.35-0.35-0.93,0-1.28l7.4-7.38 c0.18-0.18,0.46-0.18,0.64,0L18.51,19.75L18.51,19.75z" class="st2"/><path d="M17.37,34.72c-0.18,0.18-0.46,0.18-0.64,0l-7.27-7.29l0,0c-0.35-0.35-0.35-0.93,0-1.28l1-1l0,0l7.9,7.92 c0.18,0.18,0.18,0.46,0,0.64L17.37,34.72L17.37,34.72z" class="st3"/></g></g></g></svg>